<?xml version="1.0" encoding="UTF-8"?>
<svg width="48px" height="50px" viewBox="0 0 48 50" version="1.1" xmlns="http://www.w3.org/2000/svg" xmlns:xlink="http://www.w3.org/1999/xlink">
    <!-- Generator: Sketch 64 (93537) - https://sketch.com -->
    <title>Logo</title>
    <desc>Created with Sketch.</desc>
    <defs>
        <path d="M4.3839175,4.97679606 C7.90242644,3.21348099 11.947307,0.872053573 11.947307,0.872053573 C11.947307,0.872053573 14.8113246,-0.995009588 18.2915519,0.734690935 C21.7717793,2.46439146 27.7143764,5.62619444 27.7143764,5.62619444 C27.7143764,5.62619444 29.1553178,6.32661115 29.7456461,6.87573695 C30.3359742,7.42486275 30.5832496,8.05477242 30.5832496,9.43707523 L30.5832496,21.2662533 C30.5832496,21.2662533 30.6406374,23.2900001 29.2691668,24.0372688 C27.86757,24.7568551 17.9257744,29.876733 17.9257744,29.876733 C17.9257744,29.876733 16.2022664,31.0418438 13.5341934,30.1688402 C4.56875156,25.5514721 2.47552417,24.4638177 2.47552417,24.4638177 C2.47552417,24.4638177 0.054392629,23.7055104 0.0132804812,19.9090191 C-0.0278316666,16.1125277 0.0396344221,12.5881433 0.0396344221,9.58422496 C0.0132804812,6.87573695 0.865408554,6.74011114 4.3839175,4.97679606 Z" id="path-1"></path>
        <path d="M4.3839175,4.97679606 C7.90242644,3.21348099 11.947307,0.872053573 11.947307,0.872053573 C11.947307,0.872053573 14.8113246,-0.995009588 18.2915519,0.734690935 C21.7717793,2.46439146 27.7143764,5.62619444 27.7143764,5.62619444 C27.7143764,5.62619444 29.1553178,6.32661115 29.7456461,6.87573695 C30.3359742,7.42486275 30.5832496,8.05477242 30.5832496,9.43707523 L30.5832496,21.2662533 C30.5832496,21.2662533 30.6406374,23.2900001 29.2691668,24.0372688 C27.86757,24.7568551 17.9257744,29.876733 17.9257744,29.876733 C17.9257744,29.876733 16.2022664,31.0418438 13.5341934,30.1688402 C4.56875156,25.5514721 2.47552417,24.4638177 2.47552417,24.4638177 C2.47552417,24.4638177 0.054392629,23.7055104 0.0132804812,19.9090191 C-0.0278316666,16.1125277 0.0396344221,12.5881433 0.0396344221,9.58422496 C0.0132804812,6.87573695 0.865408554,6.74011114 4.3839175,4.97679606 Z" id="path-3"></path>
        <linearGradient x1="55.6161391%" y1="16.9736228%" x2="55.6161403%" y2="80.2304724%" id="linearGradient-5">
            <stop stop-color="#F8F8F8" offset="0%"></stop>
            <stop stop-color="#E6E6E6" offset="100%"></stop>
        </linearGradient>
        <path d="M4.3839175,4.97679606 C7.90242644,3.21348099 11.947307,0.872053573 11.947307,0.872053573 C11.947307,0.872053573 14.8113246,-0.995009588 18.2915519,0.734690935 C21.7717793,2.46439146 27.7143764,5.62619444 27.7143764,5.62619444 C27.7143764,5.62619444 29.1553178,6.32661115 29.7456461,6.87573695 C30.3359742,7.42486275 30.5832496,8.05477242 30.5832496,9.43707523 L30.5832496,21.2662533 C30.5832496,21.2662533 30.6406374,23.2900001 29.2691668,24.0372688 C27.86757,24.7568551 17.9257744,29.876733 17.9257744,29.876733 C17.9257744,29.876733 16.2022664,31.0418438 13.5341934,30.1688402 C4.56875156,25.5514721 2.47552417,24.4638177 2.47552417,24.4638177 C2.47552417,24.4638177 0.054392629,23.7055104 0.0132804812,19.9090191 C-0.0278316666,16.1125277 0.0396344221,12.5881433 0.0396344221,9.58422496 C0.0132804812,6.87573695 0.865408554,6.74011114 4.3839175,4.97679606 Z" id="path-6"></path>
        <path d="M4.3839175,4.97679606 C7.90242644,3.21348099 11.947307,0.872053573 11.947307,0.872053573 C11.947307,0.872053573 14.8113246,-0.995009588 18.2915519,0.734690935 C21.7717793,2.46439146 27.7143764,5.62619444 27.7143764,5.62619444 C27.7143764,5.62619444 29.1553178,6.32661115 29.7456461,6.87573695 C30.3359742,7.42486275 30.5832496,8.05477242 30.5832496,9.43707523 L30.5832496,21.2662533 C30.5832496,21.2662533 30.6406374,23.2900001 29.2691668,24.0372688 C27.86757,24.7568551 17.9257744,29.876733 17.9257744,29.876733 C17.9257744,29.876733 16.2022664,31.0418438 13.5341934,30.1688402 C4.56875156,25.5514721 2.47552417,24.4638177 2.47552417,24.4638177 C2.47552417,24.4638177 0.054392629,23.7055104 0.0132804812,19.9090191 C-0.0278316666,16.1125277 0.0396344221,12.5881433 0.0396344221,9.58422496 C0.0132804812,6.87573695 0.865408554,6.74011114 4.3839175,4.97679606 Z" id="path-8"></path>
        <path d="M4.3839175,4.97679606 C7.90242644,3.21348099 11.947307,0.872053573 11.947307,0.872053573 C11.947307,0.872053573 14.8113246,-0.995009588 18.2915519,0.734690935 C21.7717793,2.46439146 27.7143764,5.62619444 27.7143764,5.62619444 C27.7143764,5.62619444 29.1553178,6.32661115 29.7456461,6.87573695 C30.3359742,7.42486275 30.5832496,8.05477242 30.5832496,9.43707523 L30.5832496,21.2662533 C30.5832496,21.2662533 30.6406374,23.2900001 29.2691668,24.0372688 C27.86757,24.7568551 17.9257744,29.876733 17.9257744,29.876733 C17.9257744,29.876733 16.2022664,31.0418438 13.5341934,30.1688402 C4.56875156,25.5514721 2.47552417,24.4638177 2.47552417,24.4638177 C2.47552417,24.4638177 0.054392629,23.7055104 0.0132804812,19.9090191 C-0.0278316666,16.1125277 0.0396344221,12.5881433 0.0396344221,9.58422496 C0.0132804812,6.87573695 0.865408554,6.74011114 4.3839175,4.97679606 Z" id="path-10"></path>
        <path d="M4.3839175,4.97679606 C7.90242644,3.21348099 11.947307,0.872053573 11.947307,0.872053573 C11.947307,0.872053573 14.8113246,-0.995009588 18.2915519,0.734690935 C21.7717793,2.46439146 27.7143764,5.62619444 27.7143764,5.62619444 C27.7143764,5.62619444 29.1553178,6.32661115 29.7456461,6.87573695 C30.3359742,7.42486275 30.5832496,8.05477242 30.5832496,9.43707523 L30.5832496,21.2662533 C30.5832496,21.2662533 30.6406374,23.2900001 29.2691668,24.0372688 C27.86757,24.7568551 17.9257744,29.876733 17.9257744,29.876733 C17.9257744,29.876733 16.2022664,31.0418438 13.5341934,30.1688402 C4.56875156,25.5514721 2.47552417,24.4638177 2.47552417,24.4638177 C2.47552417,24.4638177 0.054392629,23.7055104 0.0132804812,19.9090191 C-0.0278316666,16.1125277 0.0396344221,12.5881433 0.0396344221,9.58422496 C0.0132804812,6.87573695 0.865408554,6.74011114 4.3839175,4.97679606 Z" id="path-12"></path>
    </defs>
    <g id="Navigation" stroke="none" stroke-width="1" fill="none" fill-rule="evenodd">
        <g id="new-nav/toplevel-current" transform="translate(-26.000000, -9.000000)">
            <g id="nav-items" transform="translate(0.000000, 9.000000)">
                <g id="logo/full-vertical" transform="translate(26.000000, 0.000000)">
                    <g id="mabl_logo_vertical_light@1x.svg" transform="translate(0.073171, 0.000000)">
                        <g id="mable" transform="translate(0.000000, 33.241758)" fill="#4B4A56" fill-rule="nonzero">
                            <path d="M10.2960419,7.73913602 C10.2960419,9.5502098 10.2961741,11.2822893 10.2960419,13.0144312 C10.2959758,13.8210072 10.3023871,14.6277079 10.2931337,15.4342839 C10.2849377,16.1487208 10.1089235,16.30646 9.33308615,16.3146834 C8.77688652,16.320664 8.2203564,16.3247757 7.66435506,16.3128144 C6.96981604,16.2978629 6.79532204,16.1395629 6.79175284,15.476086 C6.78190452,13.6007204 6.7874566,11.7252925 6.78686173,9.84986461 C6.78679563,9.64826731 6.79036482,9.44642083 6.78474664,9.24494815 C6.7524256,8.08470468 6.18049506,7.5605891 4.94680924,7.55747418 C3.56222576,7.55404778 3.5178752,7.59497777 3.5178091,8.87252894 C3.5178091,10.9093094 3.51827178,12.9460276 3.51767691,14.9827459 C3.51721424,16.3012269 3.50135115,16.3159294 2.13269685,16.316054 C1.72620514,16.3161162 1.31951514,16.3220346 0.913221719,16.3142473 C0.176975997,16.3002925 0.00353953254,16.1289099 0.00248199313,15.384383 C-0.00161597211,12.5813334 0.000565202939,9.77822156 0.000697395364,6.97517201 C0.000697395364,6.79369707 0.00367172497,6.61222214 0.00353953254,6.43074721 C0.00320905147,5.93111486 0.250342794,5.58629378 0.741371564,5.40425817 C3.14978539,4.51127439 5.58549695,4.13405819 8.10197808,5.0262944 C8.29464855,5.09463564 8.56161116,5.05333186 8.77060739,4.99203034 C10.2435615,4.56005395 11.7515466,4.45339927 13.2744695,4.58615694 C15.5804341,4.78719354 16.9985284,6.26914542 17.064889,8.64352039 C17.1290684,10.9408947 17.0804877,13.2408855 17.0855772,15.5398172 C17.0867008,16.0649296 16.8233735,16.320851 16.263869,16.3158671 C15.6862542,16.3106963 15.1085072,16.320503 14.5308924,16.3146212 C13.7292114,16.3063355 13.5625168,16.1568819 13.5564359,15.3793368 C13.5453978,13.9475974 13.5534616,12.5157956 13.5535277,11.0839316 C13.5535277,10.6806747 13.5295348,10.2758604 13.5574934,9.87422324 C13.7086555,7.70487196 12.6904433,7.31314027 10.6063636,7.67964115 C10.4825654,7.70144556 10.3594943,7.72698785 10.2960419,7.73913602" id="Fill-1"></path>
                            <path d="M34.9879248,7.6041166 L34.9879248,11.9836246 C34.9879248,13.7132745 35.0528314,13.7695921 36.9168767,13.6569568 C36.9595087,13.6543403 37.0024714,13.6547764 37.044839,13.6504155 C38.0592837,13.544633 38.6383526,12.9891191 38.6651877,12.0268596 C38.6933447,11.0204929 38.6882552,10.0126311 38.6686908,9.00589057 C38.65448,8.27569225 38.2534743,7.72416542 37.4952847,7.62722928 C36.6916869,7.52449939 35.8620473,7.6041166 34.9879248,7.6041166 M34.9879248,4.71198049 C35.4734677,4.66108278 35.8923855,4.57691778 36.3100474,4.58177705 C37.141009,4.59143329 37.9861152,4.57006497 38.7989003,4.7042555 C40.7328755,5.02365887 41.9896289,6.2659492 42.1193759,8.116084 C42.2318055,9.72026514 42.2271126,11.3432604 42.1097258,12.9472546 C41.9794501,14.7271793 40.6673081,16.0353188 38.7916297,16.4268636 C36.6480634,16.87429 34.5388011,16.6738764 32.4865137,15.9684105 C31.6016836,15.6642079 31.4720028,15.4500886 31.4716724,14.5774764 C31.4697556,10.0577973 31.4698216,5.53811819 31.4715402,1.01843909 C31.4718707,0.159407877 31.633542,0.0112002298 32.561004,0.00397362749 C33.07477,-7.5761792e-05 33.5885358,0.00571797983 34.1023677,0.00434741733 C34.7042399,0.00251146082 35.0027303,0.255347255 34.9915601,0.850669775 C34.9719957,1.89952389 34.9872638,2.9489387 34.9879248,3.99816661 C34.988057,4.21670903 34.9879248,4.43525146 34.9879248,4.71198049" id="Fill-4"></path>
                            <path d="M25.8421191,11.9570855 C24.9135995,11.9570855 24.0647258,11.9124176 23.2240481,11.971601 C22.5821217,12.0167672 22.275964,12.4117384 22.2743713,12.9839483 C22.2727253,13.5900484 22.5932258,13.9677007 23.2732237,14.0123686 C23.9926149,14.0595907 24.7200037,14.0405897 25.4403202,13.9974171 C25.5825593,13.9888198 25.8100624,13.7471647 25.8237443,13.5987702 C25.8712676,13.0832518 25.8421191,12.5613789 25.8421191,11.9570855 M25.788515,9.38510031 C25.9453614,8.3578637 25.7076133,7.76303957 24.9976739,7.46294866 C24.1646633,7.1108387 22.8707639,7.35386435 22.2694204,7.97535215 C21.5495666,8.71938071 21.5494343,8.71969221 20.5451024,8.32895729 C20.2692168,8.22161733 19.9920754,8.11652009 19.7192963,8.00245192 C18.9149715,7.66616571 18.8250806,7.36906513 19.2854407,6.6460934 C19.864642,5.73641367 20.7229674,5.1574133 21.7775324,4.85944056 C23.2599383,4.44060911 24.7653457,4.423041 26.2696955,4.78094471 C28.0223688,5.19784491 29.123003,6.28931106 29.2457437,7.94158648 C29.4215595,10.3087349 29.3575122,12.6922677 29.3749257,15.0689477 C29.3788614,15.600726 28.991141,15.8848684 28.4959481,16.0685861 C27.156244,16.5657265 25.742446,16.6777389 24.3373727,16.6358121 C23.1551759,16.600489 21.9573142,16.4461761 20.8080332,16.1828412 C19.7081922,15.9309069 19.0338786,15.15006 18.8725377,14.0745423 C18.7835722,13.4818986 18.7315545,12.8644602 18.8046569,12.2738723 C19.0089603,10.6242757 20.0641203,9.74618123 22.0883829,9.55536155 C23.2970183,9.44148027 24.5176171,9.43967362 25.788515,9.38510031" id="Fill-6"></path>
                            <path d="M47.7969745,8.18566498 C47.7969745,10.5660829 47.7989573,12.9465008 47.7958507,15.3268563 C47.7947933,16.1729296 47.6429703,16.3142844 46.7591978,16.3203274 C46.3097435,16.3234422 45.8602892,16.3222523 45.4108351,16.3206389 C44.408552,16.3169632 44.2893145,16.2133611 44.2871994,15.2890414 C44.2825727,13.2314532 44.2854809,11.1738028 44.2854809,9.11621464 C44.2854809,6.41302925 44.2831676,3.70984387 44.2873316,1.00672078 C44.2886535,0.166067565 44.4486063,0.0166139518 45.3257031,0.00421659082 C45.7964403,-0.0024493269 46.2673759,9.76020241e-16 46.7382452,0.00359360785 C47.6245294,0.0105087188 47.7949254,0.164759301 47.7959169,0.9839819 C47.7988913,3.38458446 47.7969745,5.78512472 47.7969745,8.18566498" id="Fill-8"></path>
                        </g>
                        <g id="CUBE" transform="translate(8.634146, 0.000000)">
                            <g id="Group-3" transform="translate(0.439024, 0.000000)">
                                <g id="Mask" fill="#F3F3F3" fill-rule="nonzero">
                                    <path d="M4.3839175,4.97679606 C7.90242644,3.21348099 11.947307,0.872053573 11.947307,0.872053573 C11.947307,0.872053573 14.8113246,-0.995009588 18.2915519,0.734690935 C21.7717793,2.46439146 27.7143764,5.62619444 27.7143764,5.62619444 C27.7143764,5.62619444 29.1553178,6.32661115 29.7456461,6.87573695 C30.3359742,7.42486275 30.5832496,8.05477242 30.5832496,9.43707523 L30.5832496,21.2662533 C30.5832496,21.2662533 30.6406374,23.2900001 29.2691668,24.0372688 C27.86757,24.7568551 17.9257744,29.876733 17.9257744,29.876733 C17.9257744,29.876733 16.2022664,31.0418438 13.5341934,30.1688402 C4.56875156,25.5514721 2.47552417,24.4638177 2.47552417,24.4638177 C2.47552417,24.4638177 0.054392629,23.7055104 0.0132804812,19.9090191 C-0.0278316666,16.1125277 0.0396344221,12.5881433 0.0396344221,9.58422496 C0.0132804812,6.87573695 0.865408554,6.74011114 4.3839175,4.97679606 Z" id="path-3"></path>
                                </g>
                                <g id="Path-16-Copy-Clipped">
                                    <mask id="mask-2" fill="white">
                                        <use xlink:href="#path-1"></use>
                                    </mask>
                                    <g id="path-3"></g>
                                    <path d="M4.3839175,4.97679606 C7.90242644,3.21348099 11.947307,0.872053573 11.947307,0.872053573 C11.947307,0.872053573 14.8113246,-0.995009588 18.2915519,0.734690935 C21.7717793,2.46439146 27.7143764,5.62619444 27.7143764,5.62619444 C27.7143764,5.62619444 29.1553178,6.32661115 29.7456461,6.87573695 C30.046706,7.15578429 30.2585425,7.45684249 30.3938592,7.86799467 C30.5087134,8.21697299 26.0971349,10.0062579 18.6570334,13.5533434 C17.6748388,14.021607 16.6398642,14.5205048 15.555556,15.0507673 C14.8051014,14.7119593 13.1247003,13.8751555 12.4426694,13.5533434 C3.83005722,9.48953562 0.499369722,8.06324379 0.723242677,7.61875378 C1.22782962,6.61691838 2.00557722,6.16871096 4.3839175,4.97679606 Z" id="Path-16-Copy" fill="#ECECEC" fill-rule="nonzero" mask="url(#mask-2)"></path>
                                </g>
                                <g id="Path-16-Copy-2-Clipped">
                                    <mask id="mask-4" fill="white">
                                        <use xlink:href="#path-3"></use>
                                    </mask>
                                    <g id="path-3"></g>
                                    <path d="M15.6585366,30.1714985 C16.8385197,30.1714985 18.7295568,29.2677565 20.1483795,28.5015944 C21.5672022,27.7354323 27.2554398,24.6171646 27.80889,24.2994139 C28.5797538,23.8568402 30.7106728,23.576439 30.464116,19.9273146 C30.464116,15.7631986 30.464116,12.7293506 30.464116,12.7293506 L30.464116,9.47366571 C30.464116,8.94218078 30.0768613,7.7883307 30.2021081,8.18627448 C30.3084152,8.52404176 26.2251347,10.2558453 19.3387058,13.6889794 C18.4296034,14.1421999 16.6621535,14.8395154 15.6585366,15.3527431 C15.6585366,21.9496382 15.6585366,25.0940014 15.6585366,30.1714985 Z" id="Path-16-Copy-2" fill="url(#linearGradient-5)" fill-rule="nonzero" mask="url(#mask-4)"></path>
                                </g>
                                <g id="4-Clipped">
                                    <mask id="mask-7" fill="white">
                                        <use xlink:href="#path-6"></use>
                                    </mask>
                                    <g id="path-3"></g>
                                    <g id="4" mask="url(#mask-7)">
                                        <g transform="translate(12.146341, 19.230769)" id="Group">
                                            <g>
                                                <polygon id="Path-18-Copy-6" fill="#FDAD2F" points="13.4927515 2.56323823 13.4927515 3.91704146 15.2563624 3.01474269 15.2563624 1.65636266"></polygon>
                                                <path d="M8.8280615,6.32592114 L12.3622733,4.49518353 C12.6823471,4.33306618 12.8794002,3.98176174 12.7066859,3.68132614 C12.5339716,3.38089055 12.1344879,3.26876144 11.8144141,3.43087879 L8.17683843,5.30049581 C7.85676461,5.46261316 7.71725041,5.82055911 7.88996469,6.12099471 C8.06267898,6.42143032 8.50798766,6.48803849 8.8280615,6.32592114 Z" id="Line-Copy-5" fill="#18C5CF" fill-rule="nonzero"></path>
                                                <path d="M6.7411578,7.4050686 C7.1011999,7.27043503 7.24176528,6.86923739 7.06643204,6.57014133 C6.89109878,6.27104529 6.49064889,6.16199493 6.17200218,6.32657056 L3.05890531,7.93443231 L3.59694534,7.97377372 L0.980134437,6.63162305 C0.20178854,6.2501736 -0.36547812,7.31000451 0.412867777,7.69145396 C0.412867777,7.69145396 2.09152993,8.55985819 2.930861,8.99406029 C3.3152938,9.2025718 3.43121832,9.11583407 3.59694534,9.02461038 C3.59694534,9.02461038 6.56015041,7.51560195 6.7411578,7.4050686 Z" id="Line-Copy-8" fill-opacity="0.810886549" fill="#33BE91" fill-rule="nonzero"></path>
                                                <path d="M3.69672569,8.97939516 L6.81832425,7.36822353 C7.13697097,7.2036479 7.24176528,6.86923739 7.06643204,6.57014133 C6.89109878,6.27104529 6.49064889,6.16199493 6.17200218,6.32657056 L3.29731355,7.82398636 C3.29731355,8.12972037 3.29731355,8.83327427 3.29731355,9.12551718 C3.43279196,9.12551718 3.61639054,9.02088691 3.69672569,8.97939516 Z" id="Line-Copy-10" fill="#33BE91" fill-rule="nonzero"></path>
                                                <path d="M16.8636884,2.18578827 C16.8636884,2.18578827 17.9626109,1.63781703 18.4345654,1.37938184 C18.4302841,0.907439516 18.4388464,0.480259434 18.4345654,0.0168783784 C17.6960823,0.398292308 16.2191164,1.16112016 16.2191164,1.16112016 C15.9004698,1.32569579 15.7842912,1.70157596 15.9596245,2.00067201 C16.1349577,2.29976805 16.5450417,2.3503639 16.8636884,2.18578827 Z" id="Line-Copy-6" fill="#CC45BE" fill-rule="nonzero"></path>
                                            </g>
                                        </g>
                                    </g>
                                </g>
                                <g id="3-Clipped">
                                    <mask id="mask-9" fill="white">
                                        <use xlink:href="#path-8"></use>
                                    </mask>
                                    <g id="path-3"></g>
                                    <g id="3" mask="url(#mask-9)">
                                        <g transform="translate(13.902439, 16.483516)" id="Group">
                                            <g>
                                                <polygon id="Path-18-Copy-5" fill="#FDAD2F" points="13.6097561 1.601019 13.6097561 2.95320838 15.3733671 2.04698929 15.3733671 0.686813187"></polygon>
                                                <polygon id="Path-18-Copy-8" fill="#FDAD2F" points="5.26829268 5.89783679 5.26829268 7.25279007 7.03190368 6.34171558 7.03190368 4.9823921"></polygon>
                                                <path d="M0.730871119,8.7656296 C0.850661229,8.81749087 1.42790972,9.12320974 1.53296353,9.17327541 C2.41255013,8.72201563 4.1088071,7.84181077 4.1088071,7.84181077 C4.50778204,7.5881389 4.57324444,7.28978809 4.39974667,6.99973408 C4.2262489,6.70968008 3.83802558,6.64664331 3.51360329,6.80095738 C3.51360329,6.80095738 2.21814186,7.46386011 1.53296353,7.82386736 C1.13224714,7.6097106 0.905490271,7.4903356 0.905490271,7.4903356 C0.482082364,7.35372306 0.213157648,7.53767922 0.115328321,7.77590614 C-0.0439123156,8.16367746 0.130878342,8.44846856 0.730871119,8.7656296 Z" id="Line-Copy-9" fill-opacity="0.701171875" fill="#CC45BE" fill-rule="nonzero"></path>
                                                <path d="M1.53514033,9.17519482 C2.40065027,8.72857878 4.03176148,7.88247751 4.03176148,7.88247751 C4.35618376,7.72816346 4.62861439,7.39233418 4.43234595,7.04935396 C4.2360775,6.70637375 3.85000458,6.64126897 3.52558231,6.79558302 L1.53514033,7.82200988 C1.53514033,8.36143791 1.53514033,9.00879559 1.53514033,9.17519482 Z" id="Line-Copy-11" fill="#CC45BE" fill-rule="nonzero"></path>
                                                <path d="M8.76340093,5.45894865 L12.0306369,3.7804851 C12.3517431,3.62017651 12.4896704,3.26102423 12.3188831,2.95961962 C12.1480958,2.65821501 11.7493945,2.56904776 11.4282883,2.72935635 L8.14679432,4.39931361 C7.82568814,4.55962221 7.7038306,4.93391471 7.8746179,5.23531933 C8.0454052,5.53672394 8.44229475,5.61925724 8.76340093,5.45894865 Z" id="Line-Copy-3" fill="#6A67CE" fill-rule="nonzero"></path>
                                                <g id="Line-Copy-4" transform="translate(16.097561, 0.000000)" fill="#33BE91" fill-rule="nonzero">
                                                    <path d="M0.741841509,0.0187315544 C0.322459434,0.17145231 -0.056940566,0.721769926 0.15283434,1.02708936 C0.24503566,1.16128469 0.428130377,1.30615066 0.741841509,1.36630085 C0.741841509,1.0426809 0.741841509,0.0187315544 0.741841509,0.0187315544 Z" id="path-8"></path>
                                                </g>
                                            </g>
                                        </g>
                                    </g>
                                </g>
                                <g id="2-Clipped">
                                    <mask id="mask-11" fill="white">
                                        <use xlink:href="#path-10"></use>
                                    </mask>
                                    <g id="path-3"></g>
                                    <g id="2" mask="url(#mask-11)">
                                        <g transform="translate(16.682927, 13.873626)" id="Group">
                                            <g>
                                                <polygon id="Path-18-Copy-9" fill="#FDAD2F" points="6 4.08183676 6 5.44102978 7.763611 4.53419457 7.763611 3.17304503"></polygon>
                                                <path d="M9.73511002,3.52048389 C9.73511002,3.52048389 12.4833344,2.09939429 13.890316,1.37833827 C13.8870197,0.72139508 13.890316,0.617547032 13.890316,0.0263415001 C12.1329577,0.93363953 9.19164568,2.44891383 9.19164568,2.44891383 C8.86634277,2.60158577 8.68750417,2.96266306 8.85015562,3.26800691 C9.01280707,3.57335077 9.4098071,3.67315581 9.73511002,3.52048389 Z" id="Line-Copy" fill="#18C5CF" fill-rule="nonzero"></path>
                                                <path d="M3.48786754,6.73448162 L4.74298077,6.09230317 C5.07080741,5.94446386 5.25201271,5.55127471 5.09450975,5.24356198 C4.93700681,4.93584926 4.53772209,4.85832698 4.20989546,5.00616628 L2.90054883,5.68701168 C2.57272219,5.83485099 2.40563884,6.21968735 2.5631418,6.52740008 C2.72064474,6.83511282 3.1600409,6.88232093 3.48786754,6.73448162 Z" id="Line-Copy-2" fill="#33BE91" fill-rule="nonzero"></path>
                                                <path d="M1.01528709,8.00653383 L1.81882339,7.60223706 C2.14665003,7.45439776 2.31933609,7.11434446 2.16183313,6.80663173 C2.00433019,6.498919 1.61089282,6.36931599 1.28306619,6.51715529 L0.49511778,6.93468898 C0.167291145,7.08252828 0.0338827993,7.4331024 0.191385748,7.74081514 C0.348888695,8.04852787 0.687460459,8.15437315 1.01528709,8.00653383 Z" id="Line-Copy-13" fill="#6A67CE" fill-rule="nonzero"></path>
                                            </g>
                                        </g>
                                    </g>
                                </g>
                                <g id="1-Clipped">
                                    <mask id="mask-13" fill="white">
                                        <use xlink:href="#path-12"></use>
                                    </mask>
                                    <g id="path-3"></g>
                                    <g id="1" mask="url(#mask-13)">
                                        <g transform="translate(17.414634, 11.263736)" id="Group">
                                            <g>
                                                <polygon id="Path-18-Copy-3" fill="#FDAD2F" points="8.92682927 2.20325644 8.92682927 3.55769904 10.6904403 2.65179184 10.6904403 1.29432138"></polygon>
                                                <polygon id="Path-18-Copy-4" fill="#33BE91" points="11.4146341 0.926467159 11.4146341 2.27256769 13.1555934 1.38225294 13.1555934 0.0259977505"></polygon>
                                                <path d="M4.90757179,5.66451683 L7.68177423,4.19896706 C8.00619651,4.04465299 8.12335084,3.6977437 7.95894991,3.39322646 C7.79454897,3.0887092 7.33578291,3.04010343 7.01136063,3.1944175 L4.32307913,4.5801274 C3.99865684,4.73444146 3.85807813,5.08803265 4.02247907,5.39254989 C4.18688,5.69706714 4.58314951,5.81883088 4.90757179,5.66451683 Z" id="Line" fill="#CC45BE" fill-rule="nonzero"></path>
                                                <path d="M1.03598755,7.62916291 L3.05868316,6.59002982 C3.38310544,6.43571577 3.52308161,6.09539772 3.35868069,5.79088048 C3.19427975,5.48636323 2.78771865,5.38399749 2.46329637,5.53831155 L0.536386677,6.52572382 C0.211964399,6.68003788 -0.0673870885,6.97713452 0.117746315,7.35577582 C0.302879718,7.73441713 0.711565275,7.78347698 1.03598755,7.62916291 Z" id="Line-Copy-12" fill="#18C5CF" fill-rule="nonzero"></path>
                                            </g>
                                        </g>
                                    </g>
                                </g>
                            </g>
                            <g id="glasses" opacity="0.800000012" transform="translate(0.000000, 9.065934)">
                                <g id="Line-Copy-13">
                                    <g id="path-10-link" fill="#000000" fill-rule="nonzero">
                                        <path d="M15.1284177,13.3910889 C15.388726,13.5132574 15.5819017,13.6125067 15.8921732,13.6900141 C15.8884064,12.9790149 15.89594,8.78391743 15.8921732,8.00900617 C11.317811,6.03237669 1.09287602,0.720473496 0.00620336557,0.108494697 C0.00620336557,1.04391571 0.00620336557,0.75779333 0.00620336557,5.73842783 C8.22801637,9.89675901 15.1284177,13.3910889 15.1284177,13.3910889 Z" id="path-10"></path>
                                    </g>
                                    <g id="path-10-link" fill="#1F252E">
                                        <path d="M15.1284177,13.3910889 C15.388726,13.5132574 15.5819017,13.6125067 15.8921732,13.6900141 C15.8884064,12.9790149 15.89594,8.78391743 15.8921732,8.00900617 C11.317811,6.03237669 1.09287602,0.720473496 0.00620336557,0.108494697 C0.00620336557,1.04391571 0.00620336557,0.75779333 0.00620336557,5.73842783 C8.22801637,9.89675901 15.1284177,13.3910889 15.1284177,13.3910889 Z" id="path-10"></path>
                                    </g>
                                </g>
                                <g id="Line-Copy-7">
                                    <g id="path-12-link" fill="#000000" fill-rule="nonzero">
                                        <path d="M0.572656855,5.95526371 C0.587303342,4.00389848 0.613810106,0.364856953 0.613810106,0.364856953 C0.613810106,0.364856953 0.116939905,0.154654534 0.00878388026,0.110085456 C0.00878388026,0.110085456 0.00878388026,5.73869223 0.00878388026,5.73869223 C0.373882243,5.8786043 0.572656855,5.95526371 0.572656855,5.95526371 Z" id="path-12"></path>
                                    </g>
                                    <g id="path-12-link" fill="#1F252E">
                                        <path d="M0.572656855,5.95526371 C0.587303342,4.00389848 0.613810106,0.364856953 0.613810106,0.364856953 C0.613810106,0.364856953 0.116939905,0.154654534 0.00878388026,0.110085456 C0.00878388026,0.110085456 0.00878388026,5.73869223 0.00878388026,5.73869223 C0.373882243,5.8786043 0.572656855,5.95526371 0.572656855,5.95526371 Z" id="path-12"></path>
                                    </g>
                                </g>
                                <g id="Line-Copy-15" transform="translate(15.804878, 7.692308)">
                                    <g id="path-14-link" fill="#000000" fill-rule="nonzero">
                                        <path d="M0.0804187317,6.00409247 C1.242984,6.10068036 3.41674478,4.64470003 3.93249029,3.65776848 C4.4482358,2.67083692 4.56809883,1.56957489 3.93249029,0.909897624 C3.25847839,0.244820659 2.70980722,0.109787473 2.0156542,0.0485092995 C1.32150132,-0.0127688736 0.40968439,0.226211552 0.0804187317,0.311965948 C0.0804187317,3.90517093 0.0804187317,4.33295043 0.0804187317,6.00409247 Z" id="path-14"></path>
                                    </g>
                                    <g id="path-14-link" fill="#0C0F13">
                                        <path d="M0.0804187317,6.00409247 C1.242984,6.10068036 3.41674478,4.64470003 3.93249029,3.65776848 C4.4482358,2.67083692 4.56809883,1.56957489 3.93249029,0.909897624 C3.25847839,0.244820659 2.70980722,0.109787473 2.0156542,0.0485092995 C1.32150132,-0.0127688736 0.40968439,0.226211552 0.0804187317,0.311965948 C0.0804187317,3.90517093 0.0804187317,4.33295043 0.0804187317,6.00409247 Z" id="path-14"></path>
                                    </g>
                                </g>
                            </g>
                        </g>
                    </g>
                </g>
            </g>
        </g>
    </g>
</svg>